<svg xmlns="http://www.w3.org/2000/svg" viewBox="0 0 200 200" width="200" height="200">
  <defs>
    <linearGradient id="kettleGradient" x1="0%" y1="0%" x2="100%" y2="100%">
      <stop offset="0%" style="stop-color:#C0C0C0;stop-opacity:1" />
      <stop offset="100%" style="stop-color:#A9A9A9;stop-opacity:1" />
    </linearGradient>
    <linearGradient id="filterGradient" x1="0%" y1="0%" x2="100%" y2="100%">
      <stop offset="0%" style="stop-color:#F5DEB3;stop-opacity:1" />
      <stop offset="100%" style="stop-color:#DEB887;stop-opacity:1" />
    </linearGradient>
    <linearGradient id="waterGradient" x1="0%" y1="0%" x2="100%" y2="100%">
      <stop offset="0%" style="stop-color:#87CEEB;stop-opacity:0.8" />
      <stop offset="100%" style="stop-color:#4682B4;stop-opacity:0.6" />
    </linearGradient>
  </defs>
  
  <!-- 手冲壶 -->
  <ellipse cx="120" cy="60" rx="20" ry="8" fill="url(#kettleGradient)"/>
  <rect x="100" y="60" width="40" height="50" rx="8" fill="url(#kettleGradient)"/>
  <rect x="130" y="70" width="6" height="30" rx="3" fill="url(#kettleGradient)"/>
  
  <!-- 壶嘴 -->
  <path d="M 136 85 Q 150 85 155 90" stroke="url(#kettleGradient)" stroke-width="4" fill="none"/>
  
  <!-- 滤杯 -->
  <ellipse cx="100" cy="140" rx="30" ry="8" fill="url(#filterGradient)"/>
  <rect x="70" y="100" width="60" height="40" rx="8" fill="url(#filterGradient)"/>
  
  <!-- 滤纸 -->
  <ellipse cx="100" cy="105" rx="25" ry="6" fill="#F5F5F5" opacity="0.8"/>
  
  <!-- 水流 -->
  <path d="M 155 90 Q 140 100 130 110" stroke="url(#waterGradient)" stroke-width="3" fill="none" opacity="0.7"/>
  <path d="M 150 95 Q 135 105 125 115" stroke="url(#waterGradient)" stroke-width="2" fill="none" opacity="0.5"/>
  
  <!-- 咖啡粉 -->
  <circle cx="100" cy="115" r="15" fill="#8B4513"/>
  <circle cx="95" cy="110" r="3" fill="#654321"/>
  <circle cx="105" cy="120" r="2" fill="#654321"/>
  <circle cx="90" cy="120" r="2" fill="#654321"/>
  
  <!-- 装饰元素 -->
  <circle cx="80" cy="80" r="2" fill="#D2691E"/>
  <circle cx="120" cy="80" r="2" fill="#D2691E"/>
</svg> 