<svg xmlns="http://www.w3.org/2000/svg" viewBox="0 0 32 32" width="32" height="32">
  <defs>
    <linearGradient id="coffeeGradient" x1="0%" y1="0%" x2="100%" y2="100%">
      <stop offset="0%" style="stop-color:#8B4513;stop-opacity:1" />
      <stop offset="100%" style="stop-color:#A0522D;stop-opacity:1" />
    </linearGradient>
  </defs>
  
  <!-- 咖啡杯 -->
  <path d="M8 20 L8 26 L24 26 L24 20 L22 18 L22 24 L10 24 L10 18 Z" fill="url(#coffeeGradient)"/>
  
  <!-- 咖啡杯手柄 -->
  <path d="M24 22 Q26 22 26 24 Q26 26 24 26" stroke="url(#coffeeGradient)" stroke-width="2" fill="none"/>
  
  <!-- 咖啡液体 -->
  <ellipse cx="16" cy="22" rx="6" ry="2" fill="#4A2C2A"/>
  
  <!-- 蒸汽 -->
  <path d="M12 16 Q12 14 14 14 Q16 14 16 16" stroke="#8B4513" stroke-width="1" fill="none" opacity="0.6"/>
  <path d="M16 16 Q16 14 18 14 Q20 14 20 16" stroke="#8B4513" stroke-width="1" fill="none" opacity="0.6"/>
  <path d="M20 16 Q20 14 22 14 Q24 14 24 16" stroke="#8B4513" stroke-width="1" fill="none" opacity="0.6"/>
  
  <!-- 咖啡豆装饰 -->
  <ellipse cx="14" cy="20" rx="1" ry="0.5" fill="#2C1810" opacity="0.8"/>
  <ellipse cx="18" cy="20" rx="1" ry="0.5" fill="#2C1810" opacity="0.8"/>
</svg> 