<svg xmlns="http://www.w3.org/2000/svg" viewBox="0 0 200 200" width="200" height="200">
  <defs>
    <linearGradient id="cupGradient" x1="0%" y1="0%" x2="100%" y2="100%">
      <stop offset="0%" style="stop-color:#8B4513;stop-opacity:1" />
      <stop offset="100%" style="stop-color:#654321;stop-opacity:1" />
    </linearGradient>
    <linearGradient id="steamGradient" x1="0%" y1="0%" x2="100%" y2="100%">
      <stop offset="0%" style="stop-color:#D3D3D3;stop-opacity:0.8" />
      <stop offset="100%" style="stop-color:#A9A9A9;stop-opacity:0.4" />
    </linearGradient>
    <linearGradient id="beanGradient" x1="0%" y1="0%" x2="100%" y2="100%">
      <stop offset="0%" style="stop-color:#8B4513;stop-opacity:1" />
      <stop offset="100%" style="stop-color:#654321;stop-opacity:1" />
    </linearGradient>
    <linearGradient id="kettleGradient" x1="0%" y1="0%" x2="100%" y2="100%">
      <stop offset="0%" style="stop-color:#C0C0C0;stop-opacity:1" />
      <stop offset="100%" style="stop-color:#A9A9A9;stop-opacity:1" />
    </linearGradient>
    <linearGradient id="filterGradient" x1="0%" y1="0%" x2="100%" y2="100%">
      <stop offset="0%" style="stop-color:#F5DEB3;stop-opacity:1" />
      <stop offset="100%" style="stop-color:#DEB887;stop-opacity:1" />
    </linearGradient>
  </defs>
  
  <!-- 背景装饰圆圈 -->
  <circle cx="50" cy="50" r="15" fill="#F5DEB3" opacity="0.3"/>
  <circle cx="150" cy="30" r="10" fill="#DEB887" opacity="0.4"/>
  <circle cx="180" cy="80" r="8" fill="#D2691E" opacity="0.3"/>
  <circle cx="20" cy="120" r="12" fill="#8B4513" opacity="0.2"/>
  
  <!-- 主要咖啡杯 -->
  <ellipse cx="100" cy="140" rx="35" ry="8" fill="url(#cupGradient)"/>
  <rect x="65" y="80" width="70" height="60" rx="8" fill="url(#cupGradient)"/>
  <rect x="125" y="90" width="8" height="40" rx="4" fill="url(#cupGradient)"/>
  
  <!-- 咖啡液体 -->
  <ellipse cx="100" cy="130" rx="30" ry="6" fill="#654321"/>
  <ellipse cx="100" cy="125" rx="25" ry="5" fill="#8B4513"/>
  
  <!-- 蒸汽 -->
  <path d="M 85 70 Q 80 60 85 50 Q 90 60 85 70" fill="url(#steamGradient)" opacity="0.6"/>
  <path d="M 100 65 Q 95 55 100 45 Q 105 55 100 65" fill="url(#steamGradient)" opacity="0.8"/>
  <path d="M 115 70 Q 110 60 115 50 Q 120 60 115 70" fill="url(#steamGradient)" opacity="0.6"/>
  
  <!-- 咖啡豆装饰 -->
  <ellipse cx="40" cy="100" rx="8" ry="4" fill="url(#beanGradient)" transform="rotate(-15 40 100)"/>
  <ellipse cx="160" cy="110" rx="6" ry="3" fill="url(#beanGradient)" transform="rotate(20 160 110)"/>
  <ellipse cx="30" cy="160" rx="7" ry="3.5" fill="url(#beanGradient)" transform="rotate(-10 30 160)"/>
  <ellipse cx="170" cy="150" rx="5" ry="2.5" fill="url(#beanGradient)" transform="rotate(25 170 150)"/>
  
  <!-- 手冲壶 -->
  <ellipse cx="140" cy="60" rx="12" ry="5" fill="url(#kettleGradient)"/>
  <rect x="128" y="60" width="24" height="25" rx="4" fill="url(#kettleGradient)"/>
  <rect x="145" y="65" width="3" height="15" rx="1.5" fill="url(#kettleGradient)"/>
  
  <!-- 滤杯 -->
  <ellipse cx="60" cy="160" rx="15" ry="4" fill="url(#filterGradient)"/>
  <rect x="45" y="140" width="30" height="20" rx="4" fill="url(#filterGradient)"/>
  
  <!-- 咖啡粉 -->
  <circle cx="60" cy="150" r="8" fill="#8B4513"/>
  <circle cx="58" cy="145" r="2" fill="#654321"/>
  <circle cx="62" cy="155" r="1.5" fill="#654321"/>
  
  <!-- 温度计 -->
  <rect x="170" y="80" width="3" height="20" fill="#696969"/>
  <circle cx="171.5" cy="105" r="6" fill="#696969"/>
  <rect x="170.5" y="85" width="2" height="15" fill="#FF4500"/>
  
  <!-- 计时器 -->
  <circle cx="25" cy="80" r="10" fill="#696969"/>
  <circle cx="25" cy="80" r="8" fill="#F5F5F5"/>
  <line x1="25" y1="80" x2="25" y2="72" stroke="#333" stroke-width="1.5"/>
  <line x1="25" y1="80" x2="29" y2="80" stroke="#333" stroke-width="1"/>
  
  <!-- 装饰点 -->
  <circle cx="90" cy="120" r="2" fill="#D2691E"/>
  <circle cx="110" cy="120" r="2" fill="#D2691E"/>
  <circle cx="100" cy="115" r="2" fill="#D2691E"/>
  <circle cx="85" cy="130" r="1.5" fill="#D2691E"/>
  <circle cx="115" cy="130" r="1.5" fill="#D2691E"/>
  
  <!-- 咖啡香气线条 -->
  <path d="M 75 75 Q 70 70 75 65" stroke="#D2691E" stroke-width="1" fill="none" opacity="0.6"/>
  <path d="M 125 75 Q 130 70 125 65" stroke="#D2691E" stroke-width="1" fill="none" opacity="0.6"/>
  <path d="M 85 85 Q 80 80 85 75" stroke="#D2691E" stroke-width="1" fill="none" opacity="0.4"/>
  <path d="M 115 85 Q 120 80 115 75" stroke="#D2691E" stroke-width="1" fill="none" opacity="0.4"/>
</svg> 