<svg xmlns="http://www.w3.org/2000/svg" viewBox="0 0 200 200" width="200" height="200">
  <defs>
    <linearGradient id="beanGradient" x1="0%" y1="0%" x2="100%" y2="100%">
      <stop offset="0%" style="stop-color:#8B4513;stop-opacity:1" />
      <stop offset="100%" style="stop-color:#654321;stop-opacity:1" />
    </linearGradient>
    <linearGradient id="toolGradient" x1="0%" y1="0%" x2="100%" y2="100%">
      <stop offset="0%" style="stop-color:#696969;stop-opacity:1" />
      <stop offset="100%" style="stop-color:#2F4F4F;stop-opacity:1" />
    </linearGradient>
  </defs>
  
  <!-- 咖啡豆 -->
  <ellipse cx="80" cy="120" rx="15" ry="8" fill="url(#beanGradient)" transform="rotate(-20 80 120)"/>
  <ellipse cx="120" cy="110" rx="12" ry="6" fill="url(#beanGradient)" transform="rotate(15 120 110)"/>
  <ellipse cx="100" cy="140" rx="10" ry="5" fill="url(#beanGradient)" transform="rotate(-10 100 140)"/>
  
  <!-- 咖啡师工具 - 温度计 -->
  <rect x="140" y="60" width="4" height="40" fill="url(#toolGradient)"/>
  <circle cx="142" cy="105" r="8" fill="url(#toolGradient)"/>
  <rect x="141" y="65" width="2" height="30" fill="#FF4500"/>
  
  <!-- 咖啡师工具 - 计时器 -->
  <circle cx="60" cy="80" r="15" fill="url(#toolGradient)"/>
  <circle cx="60" cy="80" r="12" fill="#F5F5F5"/>
  <line x1="60" y1="80" x2="60" y2="70" stroke="#333" stroke-width="2"/>
  <line x1="60" y1="80" x2="65" y2="80" stroke="#333" stroke-width="1"/>
  
  <!-- 装饰元素 -->
  <circle cx="100" cy="100" r="3" fill="#D2691E"/>
  <circle cx="90" cy="90" r="2" fill="#D2691E"/>
  <circle cx="110" cy="90" r="2" fill="#D2691E"/>
</svg> 