<svg xmlns="http://www.w3.org/2000/svg" viewBox="0 0 200 200" width="200" height="200">
  <defs>
    <linearGradient id="personGradient" x1="0%" y1="0%" x2="100%" y2="100%">
      <stop offset="0%" style="stop-color:#8B4513;stop-opacity:1" />
      <stop offset="100%" style="stop-color:#654321;stop-opacity:1" />
    </linearGradient>
    <linearGradient id="cupGradient" x1="0%" y1="0%" x2="100%" y2="100%">
      <stop offset="0%" style="stop-color:#F5DEB3;stop-opacity:1" />
      <stop offset="100%" style="stop-color:#DEB887;stop-opacity:1" />
    </linearGradient>
  </defs>
  
  <!-- 人物1 -->
  <circle cx="70" cy="80" r="12" fill="url(#personGradient)"/>
  <rect x="58" y="92" width="24" height="30" fill="url(#personGradient)"/>
  
  <!-- 人物2 -->
  <circle cx="130" cy="80" r="12" fill="url(#personGradient)"/>
  <rect x="118" y="92" width="24" height="30" fill="url(#personGradient)"/>
  
  <!-- 人物3 -->
  <circle cx="100" cy="90" r="10" fill="url(#personGradient)"/>
  <rect x="90" y="100" width="20" height="25" fill="url(#personGradient)"/>
  
  <!-- 咖啡杯 -->
  <ellipse cx="100" cy="160" rx="25" ry="6" fill="url(#cupGradient)"/>
  <rect x="75" y="130" width="50" height="30" rx="6" fill="url(#cupGradient)"/>
  <rect x="115" y="135" width="6" height="20" rx="3" fill="url(#cupGradient)"/>
  
  <!-- 咖啡液体 -->
  <ellipse cx="100" cy="155" rx="20" ry="4" fill="#654321"/>
  
  <!-- 连接线 - 代表友谊 -->
  <line x1="82" y1="92" x2="118" y2="92" stroke="#D2691E" stroke-width="2" opacity="0.6"/>
  <line x1="90" y1="100" x2="110" y2="100" stroke="#D2691E" stroke-width="2" opacity="0.6"/>
  
  <!-- 装饰元素 -->
  <circle cx="85" cy="70" r="2" fill="#D2691E"/>
  <circle cx="115" cy="70" r="2" fill="#D2691E"/>
  <circle cx="100" cy="75" r="2" fill="#D2691E"/>
</svg> 